<svg width="32" height="32" viewBox="0 0 32 32" fill="none" xmlns="http://www.w3.org/2000/svg">
<circle cx="16" cy="16" r="15" fill="url(#paint0_linear)" stroke="white" stroke-width="2"/>
<path d="M20.1926 15.72C20.9659 15.9733 21.5792 16.4 22.0326 17C22.4859 17.5867 22.7126 18.32 22.7126 19.2C22.7126 20.4133 22.2459 21.3533 21.3126 22.02C20.3792 22.6733 19.0192 23 17.2326 23H10.2726V9H16.8326C18.4859 9 19.7592 9.32667 20.6526 9.98C21.5459 10.62 21.9926 11.5067 21.9926 12.64C21.9926 13.3333 21.8326 13.9467 21.5126 14.48C21.1926 15.0133 20.7526 15.4267 20.1926 15.72ZM12.8726 11.04V14.9H16.5526C17.4592 14.9 18.1526 14.74 18.6326 14.42C19.1259 14.0867 19.3726 13.6067 19.3726 12.98C19.3726 12.34 19.1259 11.86 18.6326 11.54C18.1526 11.2067 17.4592 11.04 16.5526 11.04H12.8726ZM17.0726 20.96C19.0859 20.96 20.0926 20.2867 20.0926 18.94C20.0926 17.5933 19.0859 16.92 17.0726 16.92H12.8726V20.96H17.0726Z" fill="#01222D"/>
<defs>
<linearGradient id="paint0_linear" x1="9.64776" y1="28" x2="69.531" y2="26.6958" gradientUnits="userSpaceOnUse">
<stop stop-color="#05D3D8"/>
<stop offset="0.861051" stop-color="#748BFE"/>
</linearGradient>
</defs>
</svg>
