<svg width="32" height="32" viewBox="0 0 32 32" fill="none" xmlns="http://www.w3.org/2000/svg">
<circle cx="16" cy="16" r="15" fill="url(#paint0_linear)" stroke="white" stroke-width="2"/>
<path d="M17.5944 23.2C16.181 23.2 14.901 22.8933 13.7544 22.28C12.621 21.6533 11.7277 20.7933 11.0744 19.7C10.4344 18.6067 10.1144 17.3733 10.1144 16C10.1144 14.6267 10.441 13.3933 11.0944 12.3C11.7477 11.2067 12.641 10.3533 13.7744 9.74C14.921 9.11333 16.201 8.8 17.6144 8.8C18.761 8.8 19.8077 9 20.7544 9.4C21.701 9.8 22.501 10.38 23.1544 11.14L21.4744 12.72C20.461 11.6267 19.2144 11.08 17.7344 11.08C16.7744 11.08 15.9144 11.2933 15.1544 11.72C14.3944 12.1333 13.801 12.7133 13.3744 13.46C12.9477 14.2067 12.7344 15.0533 12.7344 16C12.7344 16.9467 12.9477 17.7933 13.3744 18.54C13.801 19.2867 14.3944 19.8733 15.1544 20.3C15.9144 20.7133 16.7744 20.92 17.7344 20.92C19.2144 20.92 20.461 20.3667 21.4744 19.26L23.1544 20.86C22.501 21.62 21.6944 22.2 20.7344 22.6C19.7877 23 18.741 23.2 17.5944 23.2Z" fill="#01222D"/>
<defs>
<linearGradient id="paint0_linear" x1="9.64776" y1="28" x2="69.531" y2="26.6958" gradientUnits="userSpaceOnUse">
<stop stop-color="#05D3D8"/>
<stop offset="0.861051" stop-color="#748BFE"/>
</linearGradient>
</defs>
</svg>
