<svg width="18" height="18" viewBox="0 0 18 18" fill="none" xmlns="http://www.w3.org/2000/svg">
<path d="M17.4 0.613325C16.88 0.0933251 16.04 0.0933251 15.52 0.613325L8.99996 7.11999L2.47996 0.599991C1.95996 0.0799915 1.11996 0.0799915 0.599961 0.599991C0.0799609 1.11999 0.0799609 1.95999 0.599961 2.47999L7.11996 8.99999L0.599961 15.52C0.0799609 16.04 0.0799609 16.88 0.599961 17.4C1.11996 17.92 1.95996 17.92 2.47996 17.4L8.99996 10.88L15.52 17.4C16.04 17.92 16.88 17.92 17.4 17.4C17.92 16.88 17.92 16.04 17.4 15.52L10.88 8.99999L17.4 2.47999C17.9066 1.97333 17.9066 1.11999 17.4 0.613325Z" fill="white"/>
</svg>
