<svg width="56" height="56" viewBox="0 0 56 56" fill="none" xmlns="http://www.w3.org/2000/svg">
<path d="M15.8867 38.0415C15.8867 42.4865 12.5501 46.0188 7.93377 46.0188H3.17993V30.0643H7.93377C12.5501 30.0643 15.8867 33.5966 15.8867 38.0415ZM13.9673 38.0415C13.9673 34.4629 11.7039 31.7283 7.93377 31.7283H5.11858V44.3563H7.93377C11.7039 44.3563 13.9673 41.5978 13.9673 38.0415Z" fill="white"/>
<path d="M32.9826 44.3101V46.0204H22.7455V30.0659H32.709V31.7746H24.7321V37.1545H30.4681V38.8632H24.7321V44.3101H32.9826Z" fill="white"/>
<path d="M52.8202 46.1576H52.7514L42.0105 34.3512V46.022H40.067V29.9271H40.1358L50.8767 41.7797V30.0643H52.8202V46.1576Z" fill="white"/>
<path d="M5.99344 51.914L5.67353 52.0337C5.57843 51.8314 5.42587 51.6614 5.23478 51.5448C5.0437 51.4283 4.8225 51.3702 4.59864 51.3779C4.02441 51.3779 3.63892 51.6843 3.63892 52.1007C3.63892 52.5171 3.92843 52.691 4.36351 52.8426L4.87216 53.0165C5.53597 53.2462 6.04943 53.5541 6.04943 54.2226C6.04943 54.9214 5.33123 55.3506 4.59384 55.3506C3.89324 55.3506 3.28222 54.9406 3.08228 54.3614L3.40218 54.2226C3.49297 54.4614 3.65566 54.6663 3.86789 54.8091C4.08011 54.952 4.33148 55.0257 4.58745 55.0204C5.14888 55.0204 5.66234 54.73 5.66234 54.2226C5.66234 53.7153 5.25126 53.5238 4.79219 53.3659L4.27233 53.1904C3.6853 52.9862 3.25663 52.7117 3.25663 52.1055C3.25663 51.4992 3.83086 51.0509 4.59224 51.0509C4.8847 51.043 5.1731 51.1205 5.42202 51.2738C5.67094 51.4271 5.86954 51.6497 5.99344 51.914Z" fill="white"/>
<path d="M10.0548 51.4258H8.79755V55.3075H8.40406V51.4258H7.13562V51.0876H10.0548V51.4258Z" fill="white"/>
<path d="M13.5097 54.0726H11.4975L10.9536 55.3075H10.5361L12.4764 51.0397H12.5116L14.4582 55.3075H14.0535L13.5097 54.0726ZM13.3705 53.7535L12.5004 51.7895L11.6366 53.7535H13.3705Z" fill="white"/>
<path d="M18.3372 55.3075L17.1823 53.7121H16.0819V55.3075H15.7012V51.0876H17.08C17.9805 51.0876 18.5308 51.6603 18.5308 52.4022C18.5388 52.6913 18.4461 52.9743 18.2685 53.203C18.0909 53.4316 17.8393 53.5918 17.5566 53.6562L18.7659 55.3075H18.3372ZM16.0819 53.393H17.08C17.763 53.393 18.1501 53.0244 18.1501 52.4038C18.1501 51.7832 17.763 51.4274 17.08 51.4274H16.0819V53.393Z" fill="white"/>
<path d="M22.6495 51.4258H21.3875V55.3075H21.0004V51.4258H19.7319V51.0876H22.6495V51.4258Z" fill="white"/>
<path d="M27.2355 53.7169C27.2355 54.7348 26.5653 55.3506 25.6359 55.3506C24.7066 55.3506 24.0364 54.7348 24.0364 53.7169V51.0876H24.4123V53.7169C24.4123 54.5608 24.8921 55.0187 25.6327 55.0187C26.3733 55.0187 26.8596 54.5608 26.8596 53.7169V51.0876H27.2339L27.2355 53.7169Z" fill="white"/>
<path d="M31.4822 52.4022C31.4822 53.1489 30.9335 53.7169 30.033 53.7169H29.0349V55.3123H28.6542V51.0876H30.033C30.9335 51.0876 31.4822 51.6603 31.4822 52.4022ZM31.1015 52.4022C31.1015 51.7816 30.716 51.4258 30.033 51.4258H29.0349V53.3914H30.033C30.7112 53.3914 31.1015 53.0308 31.1015 52.4022Z" fill="white"/>
<path d="M38.485 55.3075H38.4002L37.0534 51.8773L35.6922 55.3075H35.609L34.1694 51.0876H34.5693L35.681 54.4157L37.0038 51.0876H37.095L38.413 54.4157L39.5247 51.0876H39.9246L38.485 55.3075Z" fill="white"/>
<path d="M43.8611 54.9645V55.3075H41.2202V51.0876H43.7891V51.4354H41.6137V53.0196H43.1972V53.3499H41.6137V54.9597L43.8611 54.9645Z" fill="white"/>
<path d="M47.9208 54.9645V55.3075H45.2799V51.0876H47.8488V51.4354H45.6734V53.0196H47.2569V53.3499H45.6734V54.9597L47.9208 54.9645Z" fill="white"/>
<path d="M50.8655 53.1313L52.9193 55.3075H52.4394L50.632 53.393L49.8226 54.2306V55.3155H49.4259V51.0876H49.813V53.7169L52.3051 51.0876H52.785L50.8655 53.1313Z" fill="white"/>
<path d="M0 23.5644L15.5811 11.5587L17.4382 0.700012L0 23.5644Z" fill="#4FE4E7"/>
<path d="M34.2334 4.14938L47.1961 23.5644H50.9134H56L34.2334 4.14938Z" fill="#4FE4E7"/>
<path d="M22.9727 17.1332V15.9286C22.9727 15.9286 22.8831 14.6251 23.7597 13.6471L20.3254 12.7696L20.4854 15.1979H21.7538V17.7793L22.9727 17.1332Z" fill="#91ECEF"/>
<path d="M12.2973 21.0564V18.0633H16.4945V20.5283L18.1596 19.6556V15.1979H19.7672L19.9239 12.6675L15.5812 11.5587L0 23.5644H10.6929L12.2973 22.7236V21.0564Z" fill="#91ECEF"/>
<path d="M19.9687 11.9416H20.2742L20.3254 12.7696L23.7596 13.6471C24.2571 13.0727 25.0633 12.6132 26.3781 12.6132V13.8577C26.3781 13.8577 27.3154 14.046 27.9312 14.6714L40.4877 15.493L17.435 0.700012L15.5812 11.5587L19.9239 12.6755L19.9687 11.9416Z" fill="#C2F4F4"/>
<path d="M18.1596 17.4124L16.4945 18.7844V21.0564H18.1596V17.4124Z" fill="#AFF2F3"/>
<path d="M21.7538 15.1979V23.5644H22.9806V15.9286C22.9806 15.9286 22.8495 12.6132 26.386 12.6132V13.8577C26.386 13.8577 27.5697 14.0938 28.1455 14.9218C28.3554 15.2157 28.4673 15.5678 28.4655 15.9286V19.6954L29.7083 16.345V16.0259H29.8251L34.2302 4.17169L20.8436 15.1979H21.7538Z" fill="#AFF2F3"/>
<path d="M12.2973 22.2418L10.693 23.5644H12.2973V22.2418Z" fill="#AFF2F3"/>
<path d="M34.2046 16.0371V20.3097V21.0564L42.3095 20.1885L40.3452 23.5644H47.1961L34.2334 4.14938L29.7515 16.0371H34.2046Z" fill="#90ECEF"/>
<path d="M29.6987 21.886V16.1743L28.4558 19.4721V21.886H29.6987Z" fill="#90ECEF"/>
</svg>
