<svg width="56" height="56" viewBox="0 0 56 56" fill="none" xmlns="http://www.w3.org/2000/svg">
<path d="M15.8867 38.0415C15.8867 42.4865 12.55 46.0188 7.93373 46.0188H3.17989V30.0643H7.93373C12.55 30.0643 15.8867 33.5966 15.8867 38.0415ZM13.9672 38.0415C13.9672 34.4629 11.7039 31.7283 7.93373 31.7283H5.11853V44.3563H7.93373C11.7039 44.3563 13.9672 41.5978 13.9672 38.0415Z" fill="white"/>
<path d="M32.9826 44.3101V46.0204H22.7455V30.0659H32.7091V31.7746H24.7321V37.1545H30.4681V38.8632H24.7321V44.3101H32.9826Z" fill="white"/>
<path d="M52.8201 46.1576H52.7513L42.0104 34.3512V46.022H40.067V29.9271H40.1357L50.8767 41.7797V30.0643H52.8201V46.1576Z" fill="white"/>
<path d="M5.99347 51.914L5.67357 52.0337C5.57846 51.8314 5.4259 51.6614 5.23482 51.5448C5.04373 51.4283 4.82253 51.3702 4.59867 51.3779C4.02444 51.3779 3.63895 51.6843 3.63895 52.1007C3.63895 52.5171 3.92846 52.691 4.36354 52.8426L4.87219 53.0165C5.536 53.2462 6.04946 53.5541 6.04946 54.2226C6.04946 54.9214 5.33126 55.3506 4.59387 55.3506C3.89327 55.3506 3.28225 54.9406 3.08231 54.3614L3.40221 54.2226C3.493 54.4614 3.65569 54.6663 3.86792 54.8091C4.08015 54.952 4.33151 55.0257 4.58748 55.0204C5.14892 55.0204 5.66237 54.73 5.66237 54.2226C5.66237 53.7153 5.25129 53.5238 4.79222 53.3659L4.27237 53.1904C3.68533 52.9862 3.25666 52.7117 3.25666 52.1055C3.25666 51.4992 3.83089 51.0509 4.59227 51.0509C4.88473 51.043 5.17313 51.1205 5.42205 51.2738C5.67097 51.4271 5.86958 51.6497 5.99347 51.914Z" fill="white"/>
<path d="M10.0547 51.4258H8.7975V55.3075H8.40401V51.4258H7.13557V51.0876H10.0547V51.4258Z" fill="white"/>
<path d="M13.5097 54.0726H11.4975L10.9537 55.3075H10.5362L12.4764 51.0397H12.5116L14.4583 55.3075H14.0536L13.5097 54.0726ZM13.3706 53.7535L12.5004 51.7895L11.6367 53.7535H13.3706Z" fill="white"/>
<path d="M18.3372 55.3075L17.1823 53.7121H16.0818V55.3075H15.7011V51.0876H17.0799C17.9805 51.0876 18.5307 51.6603 18.5307 52.4022C18.5387 52.6913 18.4461 52.9743 18.2684 53.203C18.0908 53.4316 17.8393 53.5918 17.5566 53.6562L18.7658 55.3075H18.3372ZM16.0818 53.393H17.0799C17.7629 53.393 18.15 53.0244 18.15 52.4038C18.15 51.7832 17.7629 51.4274 17.0799 51.4274H16.0818V53.393Z" fill="white"/>
<path d="M22.6495 51.4258H21.3875V55.3075H21.0004V51.4258H19.732V51.0876H22.6495V51.4258Z" fill="white"/>
<path d="M27.2354 53.7169C27.2354 54.7348 26.5652 55.3506 25.6359 55.3506C24.7065 55.3506 24.0363 54.7348 24.0363 53.7169V51.0876H24.4122V53.7169C24.4122 54.5608 24.8921 55.0187 25.6327 55.0187C26.3732 55.0187 26.8595 54.5608 26.8595 53.7169V51.0876H27.2338L27.2354 53.7169Z" fill="white"/>
<path d="M31.4822 52.4022C31.4822 53.1489 30.9336 53.7169 30.033 53.7169H29.0349V55.3123H28.6542V51.0876H30.033C30.9336 51.0876 31.4822 51.6603 31.4822 52.4022ZM31.1015 52.4022C31.1015 51.7816 30.716 51.4258 30.033 51.4258H29.0349V53.3914H30.033C30.7112 53.3914 31.1015 53.0308 31.1015 52.4022Z" fill="white"/>
<path d="M38.485 55.3075H38.4002L37.0534 51.8773L35.6922 55.3075H35.609L34.1694 51.0876H34.5693L35.681 54.4157L37.0038 51.0876H37.095L38.413 54.4157L39.5247 51.0876H39.9246L38.485 55.3075Z" fill="white"/>
<path d="M43.8611 54.9645V55.3075H41.2202V51.0876H43.7891V51.4354H41.6137V53.0196H43.1972V53.3499H41.6137V54.9597L43.8611 54.9645Z" fill="white"/>
<path d="M47.9207 54.9645V55.3075H45.2799V51.0876H47.8487V51.4354H45.6734V53.0196H47.2569V53.3499H45.6734V54.9597L47.9207 54.9645Z" fill="white"/>
<path d="M50.8655 53.1313L52.9193 55.3075H52.4394L50.6319 53.393L49.8226 54.2306V55.3155H49.4259V51.0876H49.813V53.7169L52.3051 51.0876H52.7849L50.8655 53.1313Z" fill="white"/>
<path d="M0 23.5644L15.5811 11.5587L17.4382 0.700012L0 23.5644Z" fill="#4FE4E7"/>
<path d="M34.2334 4.14938L47.1961 23.5644H50.9135H56L34.2334 4.14938Z" fill="#4FE4E7"/>
<path d="M22.9726 17.1332V15.9286C22.9726 15.9286 22.8831 14.6251 23.7596 13.6471L20.3254 12.7696L20.4853 15.1979H21.7538V17.7793L22.9726 17.1332Z" fill="#91ECEF"/>
<path d="M12.2973 21.0564V18.0633H16.4945V20.5283L18.1596 19.6556V15.1979H19.7672L19.9239 12.6675L15.5812 11.5587L0 23.5644H10.6929L12.2973 22.7236V21.0564Z" fill="#91ECEF"/>
<path d="M19.9687 11.9416H20.2742L20.3254 12.7696L23.7596 13.6471C24.2571 13.0727 25.0632 12.6132 26.3781 12.6132V13.8577C26.3781 13.8577 27.3154 14.046 27.9312 14.6714L40.4876 15.493L17.435 0.700012L15.5811 11.5587L19.9239 12.6755L19.9687 11.9416Z" fill="#C2F4F4"/>
<path d="M18.1596 17.4124L16.4945 18.7844V21.0564H18.1596V17.4124Z" fill="#AFF2F3"/>
<path d="M21.7538 15.1979V23.5644H22.9806V15.9286C22.9806 15.9286 22.8495 12.6132 26.3861 12.6132V13.8577C26.3861 13.8577 27.5697 14.0938 28.1456 14.9218C28.3554 15.2157 28.4673 15.5678 28.4655 15.9286V19.6954L29.7083 16.345V16.0259H29.8251L34.2302 4.17169L20.8436 15.1979H21.7538Z" fill="#AFF2F3"/>
<path d="M12.2973 22.2418L10.6929 23.5644H12.2973V22.2418Z" fill="#AFF2F3"/>
<path d="M34.2046 16.0371V20.3097V21.0564L42.3095 20.1885L40.3453 23.5644H47.1961L34.2334 4.14938L29.7515 16.0371H34.2046Z" fill="#90ECEF"/>
<path d="M29.6987 21.886V16.1743L28.4559 19.4721V21.886H29.6987Z" fill="#90ECEF"/>
</svg>
