<svg width="375" height="131" viewBox="0 0 375 131" fill="none" xmlns="http://www.w3.org/2000/svg">
<g clip-path="url(#clip0)">
<path d="M134.223 86.3595L83.0615 131H185.381V41.7189L134.223 86.3595Z" fill="#90ECEF"/>
<path d="M236.542 86.3595L185.381 41.7189V131H287.703L236.542 86.3595Z" fill="#AFF2F3"/>
<path d="M286.176 65.5017L222.7 131H349.651V0L286.176 65.5017Z" fill="#90ECEF"/>
<path d="M413.13 65.5017L349.651 0V131H476.605L413.13 65.5017Z" fill="#AFF2F3"/>
<path d="M-37.7423 98.8165L-80.0186 66.6329V131H4.53716L-37.7423 98.8165Z" fill="#C2F4F4"/>
<path d="M-22.7498 84.7945L-67.7639 131H22.2644V38.5891L-22.7498 84.7945Z" fill="#90ECEF"/>
<path d="M67.2786 84.7945L22.2644 38.5891V131H112.293L67.2786 84.7945Z" fill="#C2F4F4"/>
<path d="M390.793 100.073L352.723 131H428.86V69.1486L390.793 100.073Z" fill="#06AEBF"/>
<path d="M333.69 107.713L314.656 131H352.723V84.4267L333.69 107.713Z" fill="#06AEBF"/>
<path d="M371.757 107.713L352.723 84.4267V131H390.793L371.757 107.713Z" fill="#4FE4E7"/>
<path d="M289.697 95.1904L270.661 131H308.731V59.3808L289.697 95.1904Z" fill="#06AEBF"/>
<path d="M327.764 95.1904L308.731 59.3808V131H346.801L327.764 95.1904Z" fill="#4FE4E7"/>
<path d="M218.818 116.916L199.785 131H237.851V102.831L218.818 116.916Z" fill="#06AEBF"/>
<path d="M256.888 116.916L237.852 102.831V131H275.922L256.888 116.916Z" fill="#4FE4E7"/>
<path d="M150.386 105.271L131.349 131H169.419V79.5445L150.386 105.271Z" fill="#06AEBF"/>
<path d="M188.453 105.271L169.419 79.5445V131H207.489L188.453 105.271Z" fill="#4FE4E7"/>
</g>
<defs>
<clipPath id="clip0">
<rect width="661" height="131" fill="white" transform="translate(-156)"/>
</clipPath>
</defs>
</svg>
