<svg width="48" height="48" viewBox="0 0 48 48" fill="none" xmlns="http://www.w3.org/2000/svg">
<path d="M21.6 48V26.4H9.6H7.2H4.8V43.2C4.8 45.8496 6.9504 48 9.6 48H21.6ZM43.2 43.2V26.4H40.8H38.4H26.4V48H38.4C41.0496 48 43.2 45.8496 43.2 43.2ZM40.8 8.4C40.8 3.768 37.032 0 32.4 0C28.5072 0 25.908 3.5568 24.2304 7.404C22.5768 3.768 19.8456 0 15.6 0C10.968 0 7.2 3.768 7.2 8.4C7.2 9.8304 7.3896 11.0136 7.7016 12H0V21.6H21.6V16.8H24H26.4V17.0184V21.6H48V12H40.2984C40.6128 11.0136 40.8 9.8304 40.8 8.4ZM12 8.4C12 6.4152 13.6152 4.8 15.6 4.8C17.7312 4.8 19.7136 8.46 20.8752 12H14.4C13.5024 12 12 12 12 8.4ZM32.4 4.8C34.3848 4.8 36 6.4152 36 8.4C36 12 34.4976 12 33.6 12H27.6552C28.8792 8.2176 30.6576 4.8 32.4 4.8Z" fill="url(#paint0_linear)"/>
<defs>
<linearGradient id="paint0_linear" x1="14.4716" y1="42" x2="104.297" y2="40.0437" gradientUnits="userSpaceOnUse">
<stop stop-color="#05D3D8"/>
<stop offset="0.861051" stop-color="#748BFE"/>
</linearGradient>
</defs>
</svg>
