<svg width="32" height="32" viewBox="0 0 32 32" fill="none" xmlns="http://www.w3.org/2000/svg">
<path d="M14.8 28V17.2H8.8H7.6H6.4V25.6C6.4 26.9248 7.4752 28 8.8 28H14.8ZM25.6 25.6V17.2H24.4H23.2H17.2V28H23.2C24.5248 28 25.6 26.9248 25.6 25.6ZM24.4 8.2C24.4 5.884 22.516 4 20.2 4C18.2536 4 16.954 5.7784 16.1152 7.702C15.2884 5.884 13.9228 4 11.8 4C9.484 4 7.6 5.884 7.6 8.2C7.6 8.9152 7.6948 9.5068 7.8508 10H4V14.8H14.8V12.4H16H17.2V12.5092V14.8H28V10H24.1492C24.3064 9.5068 24.4 8.9152 24.4 8.2ZM10 8.2C10 7.2076 10.8076 6.4 11.8 6.4C12.8656 6.4 13.8568 8.23 14.4376 10H11.2C10.7512 10 10 10 10 8.2ZM20.2 6.4C21.1924 6.4 22 7.2076 22 8.2C22 10 21.2488 10 20.8 10H17.8276C18.4396 8.1088 19.3288 6.4 20.2 6.4Z" fill="white"/>
</svg>
