<svg width="20" height="25" viewBox="0 0 20 25" fill="none" xmlns="http://www.w3.org/2000/svg">
<path d="M17.0001 8.33333H15.8334V6C15.8334 2.78 13.2201 0.166667 10.0001 0.166667C6.78008 0.166667 4.16675 2.78 4.16675 6V8.33333H3.00008C1.71675 8.33333 0.666748 9.38333 0.666748 10.6667V22.3333C0.666748 23.6167 1.71675 24.6667 3.00008 24.6667H17.0001C18.2834 24.6667 19.3334 23.6167 19.3334 22.3333V10.6667C19.3334 9.38333 18.2834 8.33333 17.0001 8.33333ZM10.0001 18.8333C8.71675 18.8333 7.66675 17.7833 7.66675 16.5C7.66675 15.2167 8.71675 14.1667 10.0001 14.1667C11.2834 14.1667 12.3334 15.2167 12.3334 16.5C12.3334 17.7833 11.2834 18.8333 10.0001 18.8333ZM6.50008 8.33333V6C6.50008 4.06333 8.06341 2.5 10.0001 2.5C11.9367 2.5 13.5001 4.06333 13.5001 6V8.33333H6.50008Z" fill="#C0CACC"/>
</svg>
