<svg width="28" height="24" viewBox="0 0 28 24" fill="none" xmlns="http://www.w3.org/2000/svg">
<mask id="mask0" mask-type="alpha" maskUnits="userSpaceOnUse" x="4" y="10" width="20" height="14">
<path d="M23.3158 23.9498H14.9498C14.8809 23.949 14.815 23.9211 14.7665 23.872C14.7181 23.823 14.6909 23.7569 14.6909 23.6879L14.6876 10.3721C14.6876 10.3145 14.7573 10.3083 14.7658 10.3665L15.4421 14.8986C15.6759 16.4334 16.8057 18.3859 18.0149 19.3443L23.4261 23.6267C23.6495 23.8037 23.6001 23.9498 23.3154 23.9498H23.3158ZM13.2387 10.3665C13.2461 10.3083 13.3162 10.3145 13.3162 10.3724L13.3136 23.6879C13.3136 23.8314 13.196 23.9498 13.0547 23.9498H4.68833C4.40365 23.9498 4.35387 23.8037 4.57844 23.6267L9.98961 19.3443C11.1991 18.3859 12.329 16.4334 12.561 14.8986L13.2384 10.3665H13.2387Z" fill="white"/>
</mask>
<g mask="url(#mask0)">
<path fill-rule="evenodd" clip-rule="evenodd" d="M4.43262 23.953H23.5697V10.3208H4.43262V23.953Z" fill="#E16936"/>
</g>
<mask id="mask1" mask-type="alpha" maskUnits="userSpaceOnUse" x="0" y="10" width="28" height="13">
<path d="M27.4643 17.7111C27.6155 17.7605 27.6704 17.9102 27.5849 18.0456L24.6447 22.6886C24.6257 22.7202 24.6 22.7473 24.5696 22.768C24.5391 22.7888 24.5045 22.8028 24.4682 22.809C24.4318 22.8152 24.3946 22.8136 24.3589 22.8041C24.3233 22.7947 24.2901 22.7777 24.2616 22.7543L18.7295 18.4173C17.7855 17.6776 16.8341 16.0476 16.6526 14.8602L15.9811 10.4053C15.9712 10.3433 16.0523 10.3072 16.0788 10.3809L16.9086 12.71C17.2755 13.7304 18.3703 14.7898 19.4014 15.1206L27.4643 17.7111ZM11.0195 14.8606C10.8388 16.0476 9.88629 17.6776 8.943 18.4173L3.41015 22.7543C3.3816 22.7776 3.34838 22.7946 3.31272 22.804C3.27706 22.8134 3.23979 22.815 3.20344 22.8088C3.16708 22.8026 3.13249 22.7887 3.10199 22.7679C3.07149 22.7472 3.04579 22.7201 3.02664 22.6886L0.0876351 18.0456C0.00134559 17.9102 0.0559219 17.7605 0.207482 17.7111L8.27112 15.1206C9.3007 14.7894 10.3963 13.7304 10.7639 12.71L11.5936 10.3806C11.6195 10.3068 11.7006 10.3429 11.6921 10.4049L11.0195 14.8599V14.8606Z" fill="#F0AA40"/>
</mask>
<g mask="url(#mask1)">
<path fill-rule="evenodd" clip-rule="evenodd" d="M0.046875 22.8177H27.6271V10.3352H0.046875V22.8177Z" fill="#F0AA40"/>
</g>
<mask id="mask2" mask-type="alpha" maskUnits="userSpaceOnUse" x="0" y="0" width="28" height="17">
<path d="M27.9341 15.8787C28.0779 16.1184 27.9784 16.2453 27.7129 16.1608L19.9497 13.6699C19.3159 13.4663 18.5632 12.7369 18.3368 12.1078L15.1784 3.29855C15.1304 3.16321 14.9726 3.05185 14.8299 3.05185H13.1089C12.9651 3.05185 12.8087 3.16321 12.7601 3.29891L9.60054 12.1078C9.3756 12.7369 8.62148 13.4678 7.98759 13.6721L0.286434 16.1568C0.0220345 16.2416 -0.0775304 16.1162 0.0651792 15.8762L9.42427 0.20503C9.49249 0.0921896 9.65401 0 9.78381 0H18.2033C18.3342 0 18.4972 0.0914521 18.564 0.204661L27.9345 15.8791L27.9341 15.8787Z" fill="white"/>
</mask>
<g mask="url(#mask2)">
<path fill-rule="evenodd" clip-rule="evenodd" d="M0.000976562 16.1901H27.9979V-0.00616455H0.000976562V16.1901Z" fill="#FADA54"/>
</g>
</svg>
