<svg width="34" height="47" viewBox="0 0 34 47" fill="none" xmlns="http://www.w3.org/2000/svg">
<path d="M17.0001 0.666656C7.99341 0.666656 0.666748 7.99332 0.666748 17C0.666748 26.73 10.9801 40.1467 15.2034 45.2567C16.1367 46.3767 17.8401 46.3767 18.7734 45.2567C23.0201 40.1467 33.3334 26.73 33.3334 17C33.3334 7.99332 26.0067 0.666656 17.0001 0.666656ZM27.0567 15.04L15.0867 27.01C14.1767 27.92 12.7067 27.92 11.7967 27.01L6.96675 22.18C6.05675 21.27 6.05675 19.7767 6.96675 18.8667C7.87675 17.9567 9.37008 17.9567 10.2801 18.8667L13.4534 22.04L23.7667 11.7267C24.6767 10.8167 26.1701 10.8167 27.0801 11.7267C27.9667 12.66 27.9667 14.13 27.0567 15.04Z" fill="url(#paint0_linear)"/>
<defs>
<linearGradient id="paint0_linear" x1="10.5155" y1="40.4179" x2="71.6603" y2="39.4604" gradientUnits="userSpaceOnUse">
<stop stop-color="#05D3D8"/>
<stop offset="0.861051" stop-color="#748BFE"/>
</linearGradient>
</defs>
</svg>
