<svg width="35" height="58" viewBox="0 0 35 58" fill="none" xmlns="http://www.w3.org/2000/svg">
<path d="M20 10.6667C22.9333 10.6667 25.3333 8.26666 25.3333 5.33333C25.3333 2.4 22.9333 0 20 0C17.0667 0 14.6667 2.4 14.6667 5.33333C14.6667 8.26666 17.0667 10.6667 20 10.6667ZM10.1333 19.7333L3.30667 54.16C2.96 55.7867 4.24 57.3333 5.92 57.3333H6.13333C7.38667 57.3333 8.45333 56.48 8.74667 55.2533L13.0667 36L18.6667 41.3333V54.6667C18.6667 56.1333 19.8667 57.3333 21.3333 57.3333C22.8 57.3333 24 56.1333 24 54.6667V39.6267C24 38.16 23.4133 36.7733 22.3467 35.76L18.4 32L20 24C22.8533 27.3067 26.9867 29.68 31.6267 30.4267C33.2267 30.6667 34.6667 29.3867 34.6667 27.76C34.6667 26.4533 33.7067 25.36 32.4 25.1467C28.3467 24.48 24.9867 22.08 23.2 18.9333L20.5333 14.6667C19.04 12.2933 16.0533 11.3333 13.4667 12.4267L3.25333 16.7467C1.28 17.6 0 19.52 0 21.68V28C0 29.4667 1.2 30.6667 2.66667 30.6667C4.13333 30.6667 5.33333 29.4667 5.33333 28V21.6L10.1333 19.7333Z" fill="url(#paint0_linear)"/>
<defs>
<linearGradient id="paint0_linear" x1="10.4517" y1="50.1667" x2="75.3448" y2="49.3121" gradientUnits="userSpaceOnUse">
<stop stop-color="#05D3D8"/>
<stop offset="0.861051" stop-color="#748BFE"/>
</linearGradient>
</defs>
</svg>
